<svg width="1342" height="426" xmlns="http://www.w3.org/2000/svg" version="1.1">
 <g>
  <title>Layer 1</title>
  <path d="m197.3125,35.67128l14,7l15,11l13,11l7,5l4,4l10,9l8,7l12,12l7,8l12,15l11,18l9,17l6,18l3,9l3,18l0,33l-5,25l-3,8l-6,14l-9,15l-7,10l-4,4l-10,10l-2,2l-15,11l-16,9l-11,5l-15,5l-19,4l-17.625,1.5625l-16.375,-1.5625l-18,-4l-15,-5l-16,-8l-11,-6l-15,-11l-4,-4l-10,-10l-2,-2l-11,-15l-6,-11l-6,-13l-5,-16l-2,-9l-2,-13l0,-28l3,-17l4,-17l7,-17l7,-14l2,-4l4,-6l12,-16l11,-13l1,-4l-13,-41l-1,-2l0,-6l4,-5l16,-6l4,0l12,36l20,58l3,9l12,34l12,36l4,12l0,2l-11,5l-7,2l-7,-1l-4,-5l-12,-36l-9,-26l-4,4l-8,16l-4,9l-4,19l0,20l2,12l7,18l7,11l7,9l11,10l11,7l15,6l13,3l12.5,1.25l12.5,-1.25l19,-5l14,-7l12,-9l8,-8l7,-10l6,-10l5,-15l2,-10l0,-23l-4,-17l-5,-13l-7,-13l-8,-12l-12,-14l-13,-13l-10,-8l-12,-10l-14,-10l-4,1l-14,11l-2,0l-14,-41l-4,-11l0,-5l13,-10l12,-7l2.5,-1l1.25,-0.5l14.25,-0.5z" fill="#ffffff" id="svg_1"/>
  <path d="m785.4386,63.21569l22,1l25,5l16,5l15,6l16,9l12,9l2,2l-28,37l-5,-2l-9,-6l-15,-7l-15,-5l-17,-4l-13,-1l-10,0l-11,1l-14,5l-9,7l-6,8l-2,7l0,10l4,11l6,7l7,5l16,7l11,4l23,6l29,9l11,5l17,8l11,8l10,9l7,9l5,9l4,11l2,11l0,20l-3,13l-4,12l-7,11l-9,10l-11,10l-11,7l-16,7l-18,5l-11,2l-42,0l-19,-3l-16,-4l-19,-7l-16,-8l-16,-10l-4,-3l-4,-4l-4.78431,-4.56863l31.78431,-36.43137l9,6l10,7l10,6l16,7l19,5l14,2l13,0l17,-3l11,-4l10,-7l5,-6l4,-9l1.56863,-7.5l-1.56863,-7.5l-5,-10l-9,-8l-14,-7l-16,-5l-25,-7l-17,-5l-19,-7l-15,-8l-9,-5l-7,-5l-4,-4l-7,-8l-7,-11l-5,-13l-2,-9l0,-28l3,-13l7,-14l7,-9l2,-3l2,-2l11,-9l14,-9l14,-6l14,-4l11,-2l20,-1z" fill="#ffffff" id="svg_2"/>
  <path d="m1267.4032,65.73952l-2.84032,9.68064l16,6l16,9l14,10l-27,38l-11,-6l-19,-9l-15,-5l-18,-4l-20,-1l-13,1l-14,5l-6,4l-6,7l-4,8l-2.12176,12.36976l3.76048,11.52944l4.36128,5.1008l4,2l8,6l14,6l11,4l23,6l19,6l15,5l16,8l11,6l14,11l7,8l4,5l7,16l2,8l1,20l-1,12l-5,16l-4,8l-9,12l-9,9l-11,8l-10,6l-16,6l-9,3l-16,3l-43,0l-19,-3l-17,-5l-5,-1l-5,12l-24,-10l5,-11l-14,-10l-11,-9l-6,-5l1,-4l9,-10l9,-11l10,-11l3,-3l4,3l4,4l13,9l10,6l18,7l13,3l16,2l10,0l18,-3l15,-6l9,-6l4.1008,-5.84032l1.8992,-7.15968l0,-17l-5,-9l-9,-8l-10,-5l-9,-4l-23,-6l-26,-8l-10,-3l-13,-5l-16,-8l-13,-9l-12,-12l-6,-9l-5,-11l-2,-6l-2,-12l0,-20l2,-12l6,-15l7,-10l10,-11l2,-2l9,-7l11,-6l10,-5l18,-5l10,-2l23,-1l19,1l15,3l4,-11l23.84032,8.31936z" fill="#ffffff" id="svg_3"/>
  <path d="m457.60784,68.60784l63,0l28,69l28,69l5,11l6,16l6,14l5,13l5,13l5,12l6,15l5,12l18,45l0,4l-59,0l-3,-5l-10,-25l-6,-16l-6,-16l0,-2l-127,1l-4,10l-8,22l-5,12l-4,12l-3,6l-3,1l-57,0l0,-4l61,-154c8.33334,-21 16.66667,-42 25,-63l4,-10l5,-13l5,-12l9,-23l5,-12l1,-2zm32,66l-2,1l-5,15l-4,10l-9,24l-6,16l-4,12l-4,10l-5,14l-4,13l87,0l-3,-9l-4,-12l-5,-12l-8,-21l-16,-41l-6,-16l-2,-4z" fill="#ffffff" id="svg_4"/>
  <path d="m968,69l56,0l0,292l-56,1l0,-293z" fill="#ffffff" id="svg_5"/>
 </g>

</svg>